<svg width="17" height="18" viewBox="0 0 17 18" fill="none" xmlns="http://www.w3.org/2000/svg">
<path d="M15.6344 15.4772L9.99131 7.27829L9.35328 6.35101L5.31564 0.486042L4.98117 0H0.0205078L1.23022 1.75814L6.59795 9.55708L7.23599 10.4834L11.549 16.7503L11.8834 17.2359H16.8441L15.6344 15.4772ZM12.4726 16.1133L7.99213 9.60301L7.3541 8.6763L2.15495 1.12209H4.39148L8.59628 7.23108L9.23432 8.15779L14.7097 16.113L12.4726 16.1133Z" fill="#1B90D2"/>
<path d="M7.3533 8.67627L7.99133 9.60298L7.23491 10.4833L1.43119 17.2353H0L6.59687 9.55704L7.3533 8.67627Z" fill="#1B90D2"/>
<path d="M16.2454 0L9.98919 7.27829L9.23276 8.15808L8.59473 7.23136L9.35115 6.35101L13.589 1.41843L14.8142 0H16.2454Z" fill="#1B90D2"/>
</svg>
