<svg width="20" height="20" viewBox="0 0 20 20" fill="none" xmlns="http://www.w3.org/2000/svg">
<path d="M9.67476 0C7.0444 0 6.7162 0 5.70782 0.0570782C4.89496 0.0696239 4.09038 0.222495 3.32956 0.508947C2.68863 0.756268 2.10656 1.135 1.62078 1.62078C1.135 2.10656 0.756268 2.68863 0.508947 3.32956C0.222495 4.09038 0.0696239 4.89496 0.0570782 5.70782C0 6.7162 0 7.0444 0 9.67476C0 12.3051 0 12.6286 0.0570782 13.6607C0.0804877 14.4653 0.241358 15.26 0.53273 16.0104C0.776869 16.6499 1.15169 17.2315 1.63326 17.718C2.11483 18.2045 2.69256 18.5852 3.32956 18.8358C4.08138 19.1191 4.87603 19.2719 5.67928 19.2877C6.71145 19.3352 7.03965 19.3448 9.67 19.3448C12.3004 19.3448 12.6238 19.3448 13.656 19.2877C14.4592 19.2719 15.2539 19.1191 16.0057 18.8358C16.648 18.5885 17.2312 18.2093 17.7179 17.7227C18.2046 17.236 18.5838 16.6527 18.8311 16.0104C19.1143 15.2586 19.2671 14.464 19.2829 13.6607C19.3305 12.6286 19.34 12.3004 19.34 9.67476C19.34 7.04916 19.34 6.7162 19.2829 5.68404C19.2692 4.87946 19.118 4.08316 18.8358 3.32956C18.5885 2.68729 18.2093 2.104 17.7227 1.61734C17.236 1.13069 16.6527 0.751478 16.0104 0.504191C15.2583 0.222569 14.4637 0.0713611 13.6607 0.0570782C12.6286 0 12.3004 0 9.67476 0ZM9.67476 1.74089C12.2575 1.74089 12.562 1.74089 13.5799 1.79796C14.1938 1.80516 14.802 1.91778 15.3778 2.13092C15.7954 2.29121 16.1747 2.53748 16.491 2.85378C16.8073 3.17008 17.0535 3.54933 17.2138 3.96694C17.427 4.54277 17.5396 5.15093 17.5468 5.7649C17.5944 6.78279 17.6039 7.08721 17.6039 9.67476C17.6039 12.2623 17.6039 12.562 17.5468 13.5799C17.5402 14.1939 17.4275 14.8021 17.2138 15.3778C17.0535 15.7954 16.8073 16.1747 16.491 16.491C16.1747 16.8073 15.7954 17.0535 15.3778 17.2138C14.802 17.427 14.1938 17.5396 13.5799 17.5468C12.562 17.5944 12.2575 17.6039 9.67476 17.6039C7.09197 17.6039 6.78279 17.6039 5.7649 17.5468C5.15088 17.5402 4.54261 17.4275 3.96694 17.2138C3.54933 17.0535 3.17008 16.8073 2.85378 16.491C2.53748 16.1747 2.29121 15.7954 2.13092 15.3778C1.91723 14.8021 1.80459 14.1939 1.79796 13.5799C1.7504 12.562 1.74089 12.2575 1.74089 9.67476C1.74089 7.09197 1.74089 6.78279 1.79796 5.7649C1.80516 5.15093 1.91778 4.54277 2.13092 3.96694C2.29121 3.54933 2.53748 3.17008 2.85378 2.85378C3.17008 2.53748 3.54933 2.29121 3.96694 2.13092C4.54261 1.91723 5.15088 1.80459 5.7649 1.79796C6.78279 1.7504 7.09197 1.74089 9.67476 1.74089Z" fill="#1B90D2"/>
<path d="M9.67454 12.8948C9.03631 12.8958 8.41215 12.7073 7.88108 12.3533C7.35002 11.9993 6.93594 11.4957 6.69126 10.9062C6.44658 10.3168 6.38232 9.66794 6.5066 9.04193C6.63088 8.41591 6.93812 7.84085 7.38942 7.38955C7.84072 6.93825 8.41578 6.63101 9.0418 6.50673C9.66782 6.38244 10.3166 6.44671 10.9061 6.69139C11.4956 6.93606 11.9992 7.35014 12.3532 7.88121C12.7072 8.41227 12.8956 9.03643 12.8947 9.67466C12.8947 10.5287 12.5554 11.3478 11.9515 11.9517C11.3476 12.5556 10.5286 12.8948 9.67454 12.8948ZM9.67454 4.7041C8.69125 4.70316 7.72978 4.99388 6.91175 5.53948C6.09372 6.08508 5.45589 6.86105 5.07895 7.76922C4.70201 8.67738 4.6029 9.67695 4.79415 10.6415C4.9854 11.606 5.45843 12.4921 6.15338 13.1877C6.84834 13.8833 7.734 14.3572 8.69832 14.5494C9.66265 14.7415 10.6623 14.6434 11.5708 14.2673C12.4794 13.8912 13.2559 13.2542 13.8023 12.4367C14.3487 11.6191 14.6403 10.658 14.6403 9.67466C14.6403 8.35721 14.1173 7.09365 13.1862 6.16163C12.255 5.2296 10.992 4.70536 9.67454 4.7041Z" fill="#1B90D2"/>
<path d="M15.9958 4.50921C15.9921 4.7379 15.9208 4.96039 15.7911 5.14873C15.6613 5.33707 15.4787 5.48286 15.2664 5.56779C15.054 5.65272 14.8212 5.67301 14.5974 5.6261C14.3735 5.5792 14.1685 5.46719 14.0081 5.30414C13.8477 5.1411 13.739 4.93429 13.6958 4.70969C13.6525 4.4851 13.6766 4.25272 13.7649 4.04176C13.8533 3.83079 14.002 3.65065 14.1925 3.52394C14.3829 3.39723 14.6065 3.32962 14.8352 3.32959C15.143 3.32959 15.4382 3.45187 15.6559 3.66952C15.8736 3.88717 15.9958 4.18237 15.9958 4.49018" fill="#1B90D2"/>
</svg>
