<svg width="17" height="17" viewBox="0 0 17 17" fill="none" xmlns="http://www.w3.org/2000/svg">
<path fill-rule="evenodd" clip-rule="evenodd" d="M13.2264 16.6541H16.68V10.5521C16.68 7.5566 16.0344 5.25371 12.5338 5.25371C11.877 5.22928 11.2259 5.38348 10.6497 5.69988C10.0736 6.01627 9.59407 6.48302 9.26221 7.05041H9.2175V5.53006H5.90206V16.6537H9.35566V11.1486C9.35566 9.69761 9.63109 8.29218 11.4299 8.29218C13.2032 8.29218 13.2264 9.95338 13.2264 11.2434V16.6541ZM0.89117 3.67163C1.22086 3.89185 1.60845 4.00935 2.00491 4.00926C2.53645 4.00914 3.04618 3.79789 3.42199 3.42196C3.79781 3.04603 4.00893 2.53621 4.00893 2.00463C4.00893 1.60813 3.89136 1.22054 3.67108 0.89087C3.45081 0.561201 3.13773 0.304264 2.77144 0.152552C2.40514 0.000839334 2.00209 -0.0388334 1.61325 0.0385519C1.22441 0.115937 0.867249 0.306904 0.586937 0.587301C0.306625 0.867698 0.115754 1.22493 0.0384616 1.61382C-0.0388306 2.00271 0.000928341 2.40579 0.15271 2.77208C0.304492 3.13837 0.561479 3.45142 0.89117 3.67163ZM0.274536 16.6537H3.73171L3.73216 5.53006H0.274536V16.6537Z" fill="#1B90D2"/>
</svg>
